<svg width="240" height="221" viewBox="0 0 240 221" fill="none" xmlns="http://www.w3.org/2000/svg">
<path d="M185.468 25.9824L168.947 39.3459C166.199 41.5623 165.67 45.551 167.752 48.3979C169.954 51.4312 174.238 52.0291 177.19 49.7282L194.136 36.5683C195.331 35.6475 197.036 35.8534 197.975 37.045C198.915 38.2366 198.691 39.9417 197.498 40.8799L193.932 43.6423L217.654 65.4598V33.2773H217.535L204.479 24.9251C201.867 23.2546 198.813 22.3685 195.706 22.3685C191.986 22.3685 188.368 23.6468 185.466 25.9824H185.468Z" fill="#DAD9D9"/>
<path d="M189.357 47.189L180.533 54.0419C175.158 58.2343 167.357 57.1445 163.331 51.6218C159.542 46.422 160.499 39.1618 165.498 35.1211L179.698 23.649C177.717 22.8127 175.585 22.388 173.418 22.388C170.21 22.3707 167.086 23.3261 164.407 25.0984L152.119 33.2795V71.4613H156.932L172.531 85.6785C175.876 88.729 181.047 88.4907 184.101 85.1498C185.041 84.1099 185.672 82.8987 185.995 81.6378L188.895 84.2962C192.223 87.3467 197.411 87.1257 200.466 83.8022C201.234 82.9659 201.798 81.9953 202.155 80.99C205.466 83.2064 209.971 82.7449 212.754 79.7117C215.808 76.3881 215.587 71.2056 212.259 68.1551L189.357 47.189Z" fill="#DAD9D9"/>
<path d="M133.006 33.2795C131.505 33.2795 130.275 34.5057 130.275 36.0072V71.4635C130.275 74.4815 132.716 76.9189 135.737 76.9189H141.199C144.221 76.9189 146.661 74.4815 146.661 71.4635V33.2816H133.009L133.006 33.2795ZM138.466 71.4613C136.959 71.4613 135.735 70.2393 135.735 68.7336C135.735 67.2278 136.959 66.0058 138.466 66.0058C139.974 66.0058 141.197 67.2278 141.197 68.7336C141.197 70.2393 139.974 71.4613 138.466 71.4613Z" fill="#3B9645"/>
<path d="M236.767 33.2795H223.114V71.4613C223.114 74.4794 225.554 76.9168 228.576 76.9168H234.038C237.06 76.9168 239.5 74.4794 239.5 71.4613V36.005C239.5 34.5057 238.272 33.2773 236.769 33.2773L236.767 33.2795ZM231.307 71.4613C229.799 71.4613 228.576 70.2393 228.576 68.7336C228.576 67.2278 229.799 66.0058 231.307 66.0058C232.815 66.0058 234.038 67.2278 234.038 68.7336C234.038 70.2393 232.815 71.4613 231.307 71.4613Z" fill="#3B9645"/>
<path d="M29.7362 155.087H38.7296V171.452H19.4955L24.6842 158.515C25.5041 156.452 27.4998 155.09 29.7362 155.09V155.087ZM46.9204 171.452V155.087H60.7771C62.4322 155.087 64.0027 155.837 65.0439 157.133L76.5123 171.452H46.9204ZM90.6445 171.621L73.5774 150.314C70.4712 146.428 65.7619 144.179 60.7771 144.179H29.734C23.0269 144.179 17.0031 148.252 14.5281 154.457L7.42835 172.201C3.36765 173.805 0.5 177.741 0.5 182.36V201.452C0.5 204.47 2.94032 206.908 5.96199 206.908H11.6452C12.9424 214.647 19.6842 220.544 27.8078 220.544C35.9314 220.544 42.6732 214.647 43.9703 206.908H66.276C67.5731 214.647 74.3149 220.544 82.4385 220.544C90.5621 220.544 97.3039 214.647 98.6011 206.908H104.284C107.306 206.908 109.746 204.47 109.746 201.452V193.271C109.746 182.157 101.419 172.988 90.6662 171.623H90.6489L90.6445 171.621ZM74.688 201.45C76.1371 197.169 80.7856 194.872 85.0719 196.32C89.3582 197.767 91.6575 202.41 90.2085 206.691C90.1847 206.763 90.1586 206.834 90.1326 206.904C88.6836 211.185 84.035 213.481 79.7487 212.034C75.4624 210.587 73.1631 205.944 74.6121 201.663C74.636 201.591 74.662 201.52 74.688 201.45ZM27.8078 195.997C32.3327 195.997 35.9986 199.661 35.9986 204.178C35.9986 208.695 32.3305 212.359 27.8078 212.359C23.285 212.359 19.617 208.695 19.617 204.178C19.617 199.661 23.285 195.997 27.8078 195.997Z" fill="#DAD9D9"/>
<path d="M105.586 143.797C108.362 146.571 112.853 146.571 115.599 143.797L153.377 106.036C156.154 103.263 156.154 98.7777 153.377 96.0348C150.601 93.2919 146.11 93.2615 143.364 96.0348L110.577 128.783L96.6944 114.917C93.9178 112.143 89.4276 112.143 86.6814 114.917C83.9352 117.69 83.9049 122.175 86.6814 124.918L105.586 143.799V143.797Z" fill="#1F1F1F"/>
<path d="M120 58.5376C121.158 58.5376 122.308 58.5701 123.449 58.6329V44.4547C122.306 44.4027 121.156 44.3767 120 44.3767C109.62 44.3767 99.7312 46.4653 90.7269 50.246C92.4102 54.4189 93.6575 59.0446 94.2736 64.162C102.1 60.5525 110.814 58.5376 120 58.5376Z" fill="#1F1F1F"/>
<path d="M55.1134 16.9087H33.2698L25.1809 4.78879C23.9683 2.96452 25.2655 0.544434 27.4499 0.544434H60.9333C63.1177 0.544434 64.4148 2.96452 63.2022 4.78879L55.1134 16.9087ZM33.2676 22.362H55.1112C55.7598 22.7888 56.493 23.2655 57.3303 23.7941C67.007 29.9819 87.8788 43.3108 87.8788 71.4548C87.8788 80.4895 80.5405 87.8191 71.495 87.8191H16.8838C7.83833 87.8191 0.5 80.4895 0.5 71.4548C0.5 43.3129 21.3718 29.9819 31.0485 23.7941C31.8685 23.2655 32.619 22.7888 33.2676 22.362ZM47.6037 37.3635C47.6037 35.4894 46.0679 33.9533 44.1894 33.9533C42.3109 33.9533 40.7751 35.4872 40.7751 37.3635V39.7489C39.478 40.0392 38.1808 40.4985 36.9856 41.1983C34.6125 42.6131 32.5648 45.0852 32.5821 48.6818C32.5995 52.1418 34.6298 54.3236 36.7968 55.6192C38.6732 56.7436 41.0116 57.4608 42.8727 58.0046L43.1634 58.0891C45.313 58.7369 46.8835 59.2482 47.9421 59.9134C48.8119 60.4593 48.9312 60.8342 48.9486 61.3108C48.9659 62.1623 48.6406 62.6736 47.9421 63.1004C47.0896 63.6291 45.7404 63.9519 44.2892 63.9021C42.3955 63.8349 40.6189 63.2369 38.2979 62.4526C37.9053 62.3161 37.4953 62.1796 37.0702 62.0431C35.2784 61.4473 33.35 62.4179 32.7535 64.1902C32.157 65.9625 33.1288 67.9059 34.9032 68.5017C35.2264 68.6036 35.5864 68.7227 35.9444 68.8592C37.3608 69.3532 38.9986 69.9165 40.7578 70.2913V72.7807C40.7578 74.6549 42.2935 76.191 44.1721 76.191C46.0506 76.191 47.5863 74.657 47.5863 72.7807V70.4278C48.9508 70.1375 50.3173 69.6609 51.5451 68.8939C53.9854 67.3773 55.8292 64.786 55.7772 61.2242C55.7251 57.7641 53.7793 55.5303 51.5798 54.1329C49.6167 52.9066 47.159 52.1548 45.248 51.5763L45.1287 51.5417C42.9443 50.8765 41.3912 50.3999 40.2979 49.7521C39.4107 49.2234 39.3934 48.9157 39.3934 48.6103C39.3934 47.9798 39.632 47.5031 40.4519 47.0243C41.3738 46.4783 42.7729 46.1555 44.1222 46.1728C45.7599 46.1902 47.569 46.5477 49.4475 47.059C51.2739 47.5356 53.1329 46.4632 53.6297 44.6389C54.1264 42.8146 53.0331 40.9579 51.2067 40.4617C50.0982 40.1714 48.8683 39.8832 47.6059 39.6601V37.2898V37.357L47.6037 37.3635Z" fill="#3B9645"/>
<path d="M206.732 149.632H184.889L176.8 137.512C175.587 135.688 176.885 133.268 179.069 133.268H212.552C214.737 133.268 216.034 135.688 214.821 137.512L206.732 149.632ZM184.887 155.087H206.73C207.379 155.514 208.112 155.991 208.949 156.519C218.626 162.707 239.498 176.036 239.498 204.18C239.498 213.215 232.16 220.544 223.114 220.544H168.503C159.457 220.544 152.119 213.215 152.119 204.18C152.119 176.038 172.991 162.707 182.668 156.519C183.487 155.991 184.238 155.514 184.887 155.087ZM199.223 170.087C199.223 168.213 197.687 166.676 195.808 166.676C193.93 166.676 192.394 168.21 192.394 170.087V172.472C191.097 172.762 189.8 173.222 188.605 173.922C186.231 175.336 184.184 177.808 184.201 181.405C184.219 184.865 186.249 187.047 188.416 188.342C190.292 189.467 192.631 190.184 194.492 190.728L194.782 190.812C196.932 191.46 198.503 191.971 199.561 192.637C200.431 193.183 200.55 193.557 200.568 194.034C200.585 194.885 200.26 195.397 199.561 195.824C198.709 196.352 197.359 196.675 195.908 196.625C194.014 196.558 192.238 195.96 189.917 195.176C189.524 195.039 189.114 194.903 188.689 194.766C186.897 194.171 184.969 195.141 184.373 196.913C183.776 198.686 184.748 200.629 186.522 201.225C186.845 201.327 187.205 201.446 187.563 201.582C188.98 202.076 190.618 202.64 192.377 203.015V205.504C192.377 207.378 193.913 208.914 195.791 208.914C197.67 208.914 199.205 207.38 199.205 205.504V203.151C200.57 202.861 201.936 202.384 203.164 201.617C205.604 200.1 207.448 197.509 207.396 193.947C207.344 190.487 205.398 188.254 203.199 186.856C201.236 185.63 198.778 184.878 196.867 184.3L196.748 184.265C194.563 183.6 193.01 183.123 191.917 182.475C191.03 181.947 191.012 181.639 191.012 181.333C191.012 180.703 191.251 180.226 192.071 179.748C192.993 179.202 194.392 178.879 195.741 178.896C197.379 178.913 199.188 179.271 201.067 179.782C202.893 180.259 204.752 179.186 205.249 177.362C205.743 175.538 204.652 173.681 202.826 173.185C201.717 172.895 200.487 172.606 199.225 172.383V170.013V170.08L199.223 170.087Z" fill="#3B9645"/>
<path d="M181.091 126.449H195.333C195.52 124.291 195.615 122.108 195.615 119.9C195.615 110.336 193.834 101.187 190.587 92.7654C189.44 92.4621 188.331 92.0244 187.286 91.4611C184.663 93.4999 181.409 94.6373 178.049 94.6373C177.338 94.6373 176.633 94.5875 175.937 94.4878C179.468 102.231 181.438 110.837 181.438 119.9C181.438 122.112 181.318 124.298 181.091 126.449Z" fill="#1F1F1F"/>
<path d="M60.7793 137.358C60.8812 137.358 60.9854 137.36 61.0873 137.362C59.4452 131.827 58.5645 125.966 58.5645 119.9C58.5645 110.893 60.5081 102.342 63.9962 94.6352H48.7208C45.9139 102.535 44.3868 111.038 44.3868 119.9C44.3868 125.91 45.0918 131.753 46.4193 137.358H60.7814H60.7793Z" fill="#1F1F1F"/>
<path d="M120 181.264C117.898 181.264 115.82 181.158 113.772 180.952C115.568 184.7 116.568 188.884 116.568 193.269V195.347C117.707 195.397 118.85 195.425 120 195.425C129.462 195.425 138.516 193.69 146.865 190.52C149.128 181.08 153.596 173.555 158.655 167.597C148.097 176.144 134.646 181.264 120 181.264Z" fill="#1F1F1F"/>
</svg>
