<svg width="244" height="221" viewBox="0 0 244 221" fill="none" xmlns="http://www.w3.org/2000/svg">
<path d="M11.8611 0.544434C5.31936 0.544434 0 5.85269 0 12.3808V83.3922C0 89.9202 5.31936 95.2285 11.8611 95.2285H59.3011C65.8428 95.2285 71.1621 89.9202 71.1621 83.3922V30.1342H47.4422C44.1615 30.1342 41.5127 27.4887 41.5127 24.2171V0.544434H11.8611ZM47.44 0.544434V24.2149H71.16L47.44 0.544434ZM14.8247 12.3808H26.6858C28.3164 12.3808 29.6516 13.7132 29.6516 15.3404C29.6516 16.9675 28.3164 18.3 26.6858 18.3H14.8247C13.1942 18.3 11.8589 16.9675 11.8589 15.3404C11.8589 13.7132 13.1942 12.3808 14.8247 12.3808ZM14.8247 24.2149H26.6858C28.3164 24.2149 29.6516 25.5474 29.6516 27.1745C29.6516 28.8017 28.3164 30.1342 26.6858 30.1342H14.8247C13.1942 30.1342 11.8589 28.8017 11.8589 27.1745C11.8589 25.5474 13.1942 24.2149 14.8247 24.2149ZM24.8707 71.1485C23.7395 74.9033 20.2743 77.4729 16.3467 77.4729H14.8269C13.1963 77.4729 11.8611 76.1404 11.8611 74.5133C11.8611 72.8862 13.1963 71.5537 14.8269 71.5537H16.3467C17.6624 71.5537 18.811 70.7022 19.1823 69.4456L21.944 60.2915C22.5736 58.2029 24.5016 56.7599 26.688 56.7599C28.8743 56.7599 30.8023 58.1834 31.432 60.2915L33.5814 67.4306C34.9536 66.2844 36.6949 65.6366 38.5469 65.6366C41.4932 65.6366 44.1811 67.3006 45.4968 69.9266L46.3131 71.5537H56.3396C57.9701 71.5537 59.3054 72.8862 59.3054 74.5133C59.3054 76.1404 57.9701 77.4729 56.3396 77.4729H44.4785C43.3473 77.4729 42.3291 76.8446 41.8275 75.8458L40.197 72.572C39.8822 71.9437 39.2525 71.5559 38.5664 71.5559C37.8803 71.5559 37.2312 71.9437 36.9359 72.572L35.3053 75.8458C34.7669 76.9378 33.601 77.5834 32.396 77.4729C31.191 77.3624 30.1532 76.5304 29.821 75.3843L26.6901 65.0841L24.8751 71.1507L24.8707 71.1485Z" fill="#3B9645"/>
<path d="M211.385 190.959C229.397 190.959 244 176.386 244 158.412C244 140.437 229.397 125.865 211.385 125.865C193.373 125.865 178.769 140.437 178.769 158.412C178.769 161.87 179.308 165.217 180.307 168.342L150.416 198.17C149.582 199.002 149.12 200.13 149.12 201.313V216.107C149.12 218.566 151.102 220.544 153.567 220.544H168.391C170.856 220.544 172.838 218.566 172.838 216.107V208.71H180.25C182.715 208.71 184.697 206.732 184.697 204.273V196.876H192.109C193.295 196.876 194.426 196.415 195.259 195.583L201.43 189.425C204.561 190.424 207.915 190.959 211.38 190.959H211.385ZM218.797 143.618C222.892 143.618 226.209 146.931 226.209 151.015C226.209 155.099 222.89 158.412 218.797 158.412C214.704 158.412 211.385 155.099 211.385 151.015C211.385 146.931 214.704 143.618 218.797 143.618Z" fill="#DAD9D9"/>
<path d="M198.167 46.4684L121.134 13.8497C119.416 13.0741 117.534 12.6667 115.652 12.6667C113.769 12.6667 111.887 13.0741 110.211 13.8497L79.8446 26.7V83.39C79.8446 94.6955 70.628 103.891 59.3011 103.891H21.006C28.8331 143.664 51.3394 192.526 104.852 218.094C111.685 221.359 119.62 221.359 126.453 218.094C131.373 215.743 136.028 213.191 140.435 210.47V201.311C140.435 197.803 141.799 194.512 144.276 192.04L170.719 165.653C170.298 163.276 170.085 160.854 170.085 158.41C170.085 137.118 186.349 119.547 207.129 117.415C211.96 99.6939 213.771 82.9827 213.838 69.8204C213.879 59.1237 207.171 50.2643 198.169 46.4684H198.167ZM126.101 59.8452L135.83 43.4698C136.747 41.9271 138.744 41.4158 140.292 42.3323C141.84 43.2466 142.35 45.2421 141.432 46.7847L131.703 63.1601C131.095 64.185 130.012 64.7526 128.898 64.7526C128.333 64.7526 127.76 64.6053 127.241 64.2976C125.693 63.3833 125.183 61.3878 126.101 59.8452ZM112.395 30.132C112.395 28.338 113.854 26.882 115.652 26.882C117.449 26.882 118.908 28.338 118.908 30.132V57.8757C118.908 59.6697 117.449 61.1257 115.652 61.1257C113.854 61.1257 112.395 59.6697 112.395 57.8757V30.132ZM111.168 75.757L111.205 73.7052C111.205 71.246 113.187 69.2679 115.652 69.2679C118.116 69.2679 120.098 71.246 120.098 73.7052V75.6465C121.284 75.8675 122.432 76.1448 123.47 76.4221C125.843 77.0504 127.25 79.4922 126.62 81.8582C125.991 84.2263 123.544 85.6303 121.173 85.002C119.154 84.4647 117.263 84.0963 115.576 84.0768C114.223 84.0573 112.851 84.391 111.98 84.8915C111.591 85.132 111.405 85.3356 111.331 85.4461C111.274 85.5393 111.201 85.6671 111.201 85.964V86.0745C111.238 86.1113 111.368 86.2955 111.813 86.5555C112.888 87.2033 114.481 87.7016 116.891 88.4231L117.058 88.4794C119.115 89.0904 121.859 89.9224 124.082 91.3091C126.62 92.8994 128.92 95.5448 128.974 99.6116C129.03 103.772 126.861 106.805 124.026 108.581C122.784 109.34 121.451 109.875 120.079 110.209V112.169C120.079 114.629 118.096 116.607 115.632 116.607C113.168 116.607 111.185 114.629 111.185 112.169V110.061C109.425 109.637 107.814 109.082 106.441 108.618C106.053 108.488 105.682 108.36 105.33 108.248C102.996 107.472 101.734 104.957 102.514 102.625C103.293 100.294 105.812 99.0374 108.148 99.8153C108.63 99.9821 109.075 100.129 109.501 100.277C112.021 101.128 113.836 101.737 115.782 101.811C117.265 101.867 118.58 101.514 119.34 101.052C119.692 100.831 119.859 100.645 119.933 100.515C120.007 100.405 120.1 100.181 120.081 99.7568V99.7199C120.081 99.5358 120.081 99.3321 119.34 98.8684C118.283 98.2033 116.689 97.6855 114.318 96.964L113.967 96.8535C111.965 96.262 109.333 95.4668 107.221 94.1907C104.72 92.6935 102.31 90.1217 102.292 86.0355C102.273 81.7997 104.683 78.8964 107.425 77.2693C108.61 76.5673 109.889 76.0863 111.168 75.7526V75.757ZM91.0109 42.3301C92.559 41.4158 94.5565 41.925 95.4727 43.4676L105.202 59.843C106.118 61.3878 105.608 63.3811 104.062 64.2955C103.541 64.6031 102.968 64.7505 102.405 64.7505C101.294 64.7505 100.208 64.1806 99.6001 63.158L89.8711 46.7826C88.9549 45.2378 89.4651 43.2444 91.0109 42.3301ZM166.001 141.794L142.539 159.047C138.203 162.227 132.977 163.948 127.584 163.948H68.2094C64.9287 163.948 62.2799 161.302 62.2799 158.031V146.194C62.2799 142.92 64.9309 140.277 68.2094 140.277H75.029L83.3489 133.619C87.5545 130.254 92.7805 128.441 98.1736 128.441H127.508C130.789 128.441 133.438 131.086 133.438 134.358C133.438 137.63 130.787 140.275 127.508 140.275H112.684C111.053 140.275 109.718 141.607 109.718 143.235C109.718 144.862 111.053 146.194 112.684 146.194H135.031L157.214 129.884C160.512 127.462 165.145 128.164 167.573 131.455C170 134.746 169.297 139.369 165.999 141.792L166.001 141.794Z" fill="#1F1F1F"/>
</svg>
